# xmcd
# Track frame offsets:
# 150
# 13674
# 33119
# 59387
# 83689
# 101857
# 128437
# 149928
# 179268
# 202349
# 226726
# 248700
# 275975
#
# Disc length: 4085 seconds
# Revision: 0
# Processed by: cddbd v1.4PL0 Copyright (c) Steve Scherf et al.
# Submitted via: VisiTrax 2.9.5.180 - For more info visit www.synapsa.com
#
DISCID=bb0ff30d
DTITLE=John Primer - Stuff You Got To Watch
DYEAR=1992
DGENRE=
TTITLE0=Stuff You Got To Watch
TTITLE1=See See Baby
TTITLE2=Inflation Blues
TTITLE3=Cairo
TTITLE4=Lawhorn Special
TTITLE5=Double Trouble
TTITLE6=Rhinestone Cowboy
TTITLE7=Fed Up Baby
TTITLE8=Baby Bring Your Clothes Back Home
TTITLE9=That's All I Need
TTITLE10=I'm Gonna Ride Until I'm Satisfied
TTITLE11=Travelin' Blues
TTITLE12=The Mojo
EXTD=
EXTT0=
EXTT1=
EXTT2=
EXTT3=
EXTT4=
EXTT5=
EXTT6=
EXTT7=
EXTT8=
EXTT9=
EXTT10=
EXTT11=
EXTT12=
PLAYORDER=
